name pl06_filtered_grf.mot
datacolumns 37
datarows 7
range 0.002500 0.005500
endheader
time	1_ground_force_vx	1_ground_force_vy	1_ground_force_vz	1_ground_force_px	1_ground_force_py	1_ground_force_pz	1_ground_torque_x	1_ground_torque_y	1_ground_torque_z	2_ground_force_vx	2_ground_force_vy	2_ground_force_vz	2_ground_force_px	2_ground_force_py	2_ground_force_pz	2_ground_torque_x	2_ground_torque_y	2_ground_torque_z	3_ground_force_vx	3_ground_force_vy	3_ground_force_vz	3_ground_force_px	3_ground_force_py	3_ground_force_pz	3_ground_torque_x	3_ground_torque_y	3_ground_torque_z	4_ground_force_vx	4_ground_force_vy	4_ground_force_vz	4_ground_force_px	4_ground_force_py	4_ground_force_pz	4_ground_torque_x	4_ground_torque_y	4_ground_torque_z
            0.002500	           -0.000000	            0.000000	            0.000000	            0.146963	            0.000000	            0.232437	            0.000000	            0.000000	           -0.000000	           -0.000000	            0.000000	            0.000000	           -0.138296	            0.000000	            0.256471	            0.000000	           -0.000000	            0.000000	            2.776625	          312.615963	          156.604624	            0.375389	            1.309111	            1.913247	           -0.114407	          -12.880947	           -6.452696	          -23.480325	          343.689879	          193.085600	           -0.265903	            1.309016	            1.924756	           -1.280215	           18.738966	           10.527585
            0.003000	            0.000000	            0.000000	            0.000000	            0.146963	            0.000000	            0.232437	            0.000000	            0.000000	           -0.000000	           -0.000000	            0.000000	            0.000000	           -0.138296	            0.000000	            0.256471	            0.000000	           -0.000000	            0.000000	            2.788642	          312.322509	          156.660428	            0.375389	            1.309111	            1.913247	           -0.115001	          -12.879888	           -6.460530	          -23.390360	          343.822794	          193.343006	           -0.265903	            1.309016	            1.924756	           -1.274465	           18.733795	           10.534637
            0.003500	            0.000000	            0.000000	           -0.000000	            0.146963	            0.000000	            0.232437	            0.000000	           -0.000000	           -0.000000	           -0.000000	            0.000000	            0.000000	           -0.138296	            0.000000	            0.256471	            0.000000	           -0.000000	            0.000000	            2.799087	          312.021862	          156.716549	            0.375388	            1.309136	            1.913269	           -0.115530	          -12.878491	           -6.468369	          -23.298047	          343.961720	          193.609940	           -0.265904	            1.309018	            1.924758	           -1.268598	           18.729000	           10.542221
            0.004000	            0.000000	           -0.000000	           -0.000000	            0.146963	            0.000000	            0.232437	           -0.000000	           -0.000000	            0.000000	           -0.000000	            0.000000	            0.000000	           -0.138296	            0.000000	            0.256471	            0.000000	           -0.000000	            0.000000	            2.807962	          311.714799	          156.772759	            0.375387	            1.309161	            1.913291	           -0.115995	          -12.876728	           -6.476177	          -23.203460	          344.106758	          193.886098	           -0.265904	            1.309019	            1.924760	           -1.262618	           18.724589	           10.550323
            0.004500	            0.000000	           -0.000000	           -0.000000	            0.146963	            0.000000	            0.232437	           -0.000000	           -0.000000	            0.000000	           -0.000000	            0.000000	            0.000000	           -0.138296	            0.000000	            0.256471	            0.000000	           -0.000000	            0.000000	            2.815280	          311.402102	          156.828841	            0.375385	            1.309186	            1.913312	           -0.116395	          -12.874577	           -6.483916	          -23.106687	          344.257996	          194.171151	           -0.265905	            1.309021	            1.924762	           -1.256529	           18.720566	           10.558924
            0.005000	            0.000000	           -0.000000	           -0.000000	            0.146963	            0.000000	            0.232437	           -0.000000	           -0.000000	            0.000000	           -0.000000	           -0.000000	            0.000000	           -0.138296	            0.000000	            0.256471	           -0.000000	            0.000000	           -0.000000	            2.821064	          311.084555	          156.884597	            0.375384	            1.309211	            1.913334	           -0.116730	          -12.872016	           -6.491550	          -23.007834	          344.415499	          194.464742	           -0.265906	            1.309022	            1.924764	           -1.250339	           18.716931	           10.568001
            0.005500	            0.000000	           -0.000000	           -0.000000	            0.146963	            0.000000	            0.232437	           -0.000000	           -0.000000	            0.000000	           -0.000000	           -0.000000	            0.000000	           -0.138296	            0.000000	            0.256471	           -0.000000	            0.000000	           -0.000000	            2.825081	          310.762044	          156.941616	            0.375383	            1.309234	            1.913355	           -0.116990	          -12.868990	           -6.499121	          -22.905978	          344.579117	          194.766967	           -0.265906	            1.309024	            1.924766	           -1.243996	           18.713669	           10.577555
